<svg width="24" height="25" viewBox="0 0 24 25" fill="none" xmlns="http://www.w3.org/2000/svg">
<path d="M7.31773 17.1641L7.27361 17.2069C6.58072 17.913 5.7789 18.2861 4.95295 18.2861C3.22797 18.2861 1.97663 16.9917 1.97663 15.2064C1.97663 13.4238 3.22797 12.1274 4.95295 12.1274C5.7789 12.1274 6.58072 12.5025 7.27361 13.2114L7.31773 13.2535L8.42704 11.9116L8.3974 11.8757C7.47492 10.7855 6.36768 10.2552 5.00672 10.2552C3.64232 10.2552 2.39305 10.7151 1.49402 11.5433C0.515013 12.4412 0 13.7072 0 15.2064C0 16.7055 0.515013 17.9744 1.49402 18.8722C2.39305 19.7052 3.64232 20.1617 5.00672 20.1617C6.36768 20.1617 7.47492 19.6307 8.3974 18.5398L8.42704 18.5067L7.31773 17.1641" fill="white"/>
<path d="M9.54742 19.9787H11.5068V10.4101H9.54742V19.9787Z" fill="white"/>
<path d="M19.1834 17.8986C18.6602 18.2172 18.1741 18.3778 17.737 18.3778C17.1034 18.3778 16.8166 18.0427 16.8166 17.2979V12.2206H18.8139V10.4194H16.8166V7.44176L14.8965 8.47062V10.4194H13.2391V12.2206H14.8965V17.6214C14.8965 19.0922 15.7679 20.099 17.0696 20.1252C17.9528 20.1425 18.485 19.8791 18.8077 19.686L18.8284 19.6729L19.2993 17.8275L19.1834 17.8986" fill="white"/>
<path d="M20.8053 19.9787H22.7675V10.4101H20.8053V19.9787Z" fill="white"/>
<path d="M23.9104 8.7328C22.1199 6.19652 19.1471 4.68357 16.1225 4.68357C13.0986 4.68357 10.125 6.19652 8.33799 8.7328L8.24561 8.86313H10.5001L10.5249 8.83623C12.0589 7.25158 14.0624 6.41442 16.1225 6.41442C18.1825 6.41442 20.1847 7.25158 21.7221 8.83623L21.7469 8.86313H24L23.9104 8.7328" fill="#EE1C25"/>
</svg>
