<svg xmlns="http://www.w3.org/2000/svg" width="30" height="30" fill="none" xmlns:v="https://vecta.io/nano"><circle cx="15" cy="15" r="15" fill="#fff"/><path d="M11.63 2.376C7.466 3.48 4.084 6.642 2.595 10.757c-.707 2.032-.808 5.696-.177 7.804 1.868 6.298 8.303 10.363 14.688 9.259 4.972-.828 9.06-4.441 10.499-9.259.505-1.681.53-5.194.05-6.95-1.186-4.441-4.896-8.079-9.388-9.234-1.918-.502-4.82-.502-6.637 0zm1.943 4.793l-.076 2.459-1.716.125c-1.514.1-1.817.226-2.347.828-.58.677-.606.853-.606 4.266 0 3.914.126 4.366 1.514 5.069.404.201 1.312.376 2.019.376h1.287l-.076 2.434-.076 2.459-.631-.075c-1.211-.151-3.785-1.531-4.997-2.66-2.448-2.283-3.735-6.022-3.155-9.133.732-3.839 3.584-7.076 7.218-8.205 1.767-.577 1.716-.627 1.64 2.058zm5.805-1.556c1.741.803 3.962 2.936 4.871 4.667 1.54 3.061 1.54 6.248-.025 9.409-1.237 2.509-4.265 4.843-7.117 5.47l-.707.15v-2.509-2.509h1.211c1.439 0 2.826-.652 3.256-1.505.202-.402.328-1.807.328-3.99V11.46l-.858-.853c-.782-.778-.984-.853-2.398-.853H16.4V7.219 4.685l.833.176c.429.1 1.413.427 2.145.753zm-1.009 9.359l.076 2.584-3.483-.075-3.483-.075-.076-2.208c-.051-1.455.025-2.359.227-2.584.227-.301.959-.351 3.483-.301l3.18.075.076 2.584z" fill="#b61f41"/></svg>