<svg xmlns="http://www.w3.org/2000/svg" width="30" height="30" fill="none"  xmlns:v="https://vecta.io/nano"><circle cx="15" cy="15" r="15" fill="#81cde4"/><path d="M3.913 17.826l.736-4.924c.165-1.085 1.369-2.033 2.661-2.033 1.31 0 1.931.867 1.805 1.699l-.106.716c-.088.602-.554 1.179-1.378 1.608l.844 1.364c.097.149.135.379.097.624-.087.52-.496.946-.941.946a.63.63 0 0 1-.553-.322l-1.243-2.047-.213 1.435c-.079.518-.486.933-.923.933h-.785zm2.949-5.94c-.281 0-.544.266-.591.603l-.213 1.482c-.048.338.136.604.416.604s.544-.266.593-.604l.212-1.482c.049-.337-.135-.603-.417-.603zm3.069.079c.083-.601.546-1.095 1.019-1.095s.791.495.71 1.095l-.334 2.482h.935l.345-2.482c.083-.601.546-1.095 1.018-1.095s.794.495.71 1.095l-.654 4.765c-.083.601-.545 1.096-1.02 1.096s-.791-.496-.71-1.096l.21-1.543h-.947l-.209 1.543c-.082.601-.544 1.096-1.019 1.096H9.13m10.369-4.961c-.078.463-.34.912-.804 1.328.32.323.454.748.385 1.166l-.066.425c-.175 1.099-1.367 2.043-2.644 2.043h-2.023l.745-4.924c.165-1.087 1.366-2.032 2.652-2.032 1.308 0 1.936.864 1.802 1.694l-.049.301zm-2.489 1.557c-.32 0-.619.314-.678.694l-.144.993c-.058.38.156.691.473.691s.63-.311.687-.691l.146-.993c.057-.38-.164-.694-.485-.694zm.389-2.526c-.319 0-.611.312-.68.693l-.115.681c-.069.382.156.693.476.693s.618-.311.686-.693l.114-.681c.07-.381-.163-.693-.482-.693z" fill="#005fa9"/><path d="M26.087 14.564l-3.261 3.262-3.261-3.262 3.261-3.259 3.261 3.259z" fill="#e63037"/></svg>