<svg xmlns="http://www.w3.org/2000/svg" width="30" height="30" fill="none"  xmlns:v="https://vecta.io/nano"><rect width="30" height="30" rx="15" fill="#0867b3"/><path d="M6.786 4.18c-.366 1.831-.156 3.594.637 5.237a8.01 8.01 0 0 0 2.555 3.076c.554.412 1.653 1.007 1.749.948.073-.046.16-.801.16-1.392 0-.554-.009-.618-.087-.664-.783-.453-1.639-1.209-2.102-1.854A6.58 6.58 0 0 1 8.594 6.94c-.114-.664-.114-.664.353-.43 2.166 1.085 3.563 3.443 3.453 5.832a7.45 7.45 0 0 1-.101.916c-.087.412-.288 1.08-.343 1.14-.023.018-.238-.014-.49-.078a7.37 7.37 0 0 0-2.326-.247c-.627.018-.957.055-1.378.142-1.928.408-3.6 1.438-4.79 2.962-.504.641-1.131 1.749-1.076 1.895.032.082 1.053.577 1.548.746a8.17 8.17 0 0 0 8.559-2.033c.275-.284.637-.705.719-.838.009-.018.247.146.504.348l.192.156-.229.352c-.953 1.451-1.438 3.374-1.287 5.109a8.11 8.11 0 0 0 2.363 5.141c.201.211.385.38.412.38.06 0 .847-.797 1.113-1.122.756-.934 1.369-2.275 1.626-3.557.087-.439.105-.664.105-1.479 0-1.003-.032-1.277-.234-2.092a8.38 8.38 0 0 0-1.04-2.408l-.215-.33.311-.229c.412-.311 1.401-.797 1.91-.938.696-.201 1.241-.265 2.015-.233a5.94 5.94 0 0 1 3.279 1.058c.444.297 1.232 1.003 1.232 1.103 0 .082-.508.16-1.213.188-1.076.037-1.946-.146-2.931-.623-.582-.279-1.145-.655-1.488-.994l-.211-.201-.339.096a5.66 5.66 0 0 0-1.191.453c-.316.16-.362.197-.325.265.073.137.788.847 1.127 1.117a8.53 8.53 0 0 0 3.174 1.589c.71.183 1.351.247 2.207.22a7.24 7.24 0 0 0 2.345-.398c.559-.183 1.589-.664 1.626-.76.027-.073-.403-.92-.692-1.369-.527-.81-1.305-1.616-2.111-2.198-.517-.375-1.543-.888-2.184-1.099-.934-.302-1.392-.366-2.578-.366-.921.005-1.113.018-1.534.105-1.273.275-2.473.829-3.426 1.575l-.293.229-.256-.206-.522-.375c-.146-.096-.266-.188-.266-.201s.073-.247.16-.513.22-.732.284-1.048c.114-.527.124-.659.124-1.602s-.009-1.08-.124-1.607a8.18 8.18 0 0 0-7.071-6.519l-.234-.032-.05.247zm3.513 11.875c.27.037.513.087.55.105.073.041-.513.613-.962.948-1.236.911-2.826 1.36-4.277 1.213l-.765-.105-.234-.05.435-.417c1.388-1.351 3.339-1.978 5.253-1.694zm4.74 3.484c.678 1.424.801 2.939.371 4.445-.119.421-.632 1.52-.705 1.52-.059 0-.463-.81-.591-1.186a6.3 6.3 0 0 1 .398-5.008c.092-.169.188-.307.215-.307s.169.243.311.536zm6.924-15.528c-2.084.38-3.888 1.506-5.18 3.237a8.29 8.29 0 0 0-1.511 3.493c-.124.664-.124 2.33 0 2.985.082.435.096.467.183.444l.898-.243.802-.215-.005-.137c0-.073-.032-.321-.064-.545-.073-.508-.041-1.46.069-1.969.44-2.092 1.635-3.676 3.448-4.578.476-.238 1.282-.453 1.974-.531l.476-.055-.027-.485c-.023-.43-.128-1.167-.197-1.392-.032-.096-.371-.101-.865-.009z" fill="#fff"/><path d="M21.505 6.767c-.375.197-.549.522-.517.975.037.536.44.888.985.856.531-.027.884-.412.884-.957 0-.398-.174-.691-.513-.865-.211-.11-.641-.114-.838-.009zm-.966 2.39a.98.98 0 0 0-.705 1.186c.179.755 1.122.989 1.635.407.27-.307.311-.705.119-1.09a.96.96 0 0 0-1.049-.504zm-2.148 2.014a1.2 1.2 0 0 0-.33.247c-.55.627-.105 1.616.719 1.607.545-.009.93-.407.93-.98 0-.696-.696-1.158-1.319-.874z" fill="#ee2e30"/></svg>