<svg xmlns="http://www.w3.org/2000/svg" width="30" height="30" fill="none"  xmlns:v="https://vecta.io/nano"><circle cx="15" cy="15" r="15" fill="#fff"/><path d="M16.655 14.812v-.004c0-3.584-2.91-6.489-6.501-6.489-3.586 0-6.498 2.905-6.498 6.489s2.913 6.489 6.498 6.489c.67 0 1.312-.102 1.916-.287V16.5c-.468.529-1.149.864-1.911.864-1.408 0-2.552-1.143-2.552-2.552a2.55 2.55 0 1 1 5.1 0v5.963h.007v.522h3.941M19.404 8.32a6.46 6.46 0 0 0-4.164 1.515c.992.988 1.681 2.31 1.902 3.796.423-.814 1.279-1.369 2.256-1.369a2.55 2.55 0 1 1 0 5.101c-.304 0-.599-.055-.875-.155v4.029c.288.038.582.06.88.06 3.582 0 6.491-2.904 6.491-6.488s-2.909-6.49-6.491-6.49z" fill="#ed1c23"/></svg>