<svg xmlns="http://www.w3.org/2000/svg" width="30" height="30" fill="none"  xmlns:v="https://vecta.io/nano"><circle cx="15" cy="15" r="15" fill="#fff"/><path fill-rule="evenodd" d="M11.372 11.442L7.014 8.537c.703-.951 1.554-1.804 2.556-2.454l3.757 3.856c-.752.352-1.453.851-1.955 1.504zm-1.152 2.755L5.26 12.294c.301-1.203.752-2.304 1.404-3.306l4.458 2.755c-.5.701-.8 1.552-.902 2.454zm5.961 2.253l-5.36-2.054a5.41 5.41 0 0 1 1.002-2.253l4.358 2.755v1.552zm0-1.802l-4.157-2.755c.5-.601 1.152-1.052 1.904-1.353l2.253 2.255v1.853zm-10.62 3.556a10.04 10.04 0 0 1-.601-3.456c0-.701.051-1.353.201-2.003l5.059 1.804v.199c0 1.203.402 2.355 1.152 3.257h.051c-.451-.803-.701-1.705-.701-2.655 0-.201 0-.4.049-.601l5.411 1.904v1.552H5.561zm.352.953c-.051-.201-.15-.4-.25-.601h3.155l.551.601h4.659l-1.002 1.052h-5.76c-.15-.553-.703-1.004-1.353-1.052zm11.922.25c.349-.201.701-.451 1.002-.701.199-.15.4-.352.551-.551.8-.953 1.302-2.105 1.302-3.407a5.26 5.26 0 0 0-5.26-5.26c-.599 0-1.201.102-1.703.303l-3.657-4.057c1.554-.902 3.407-1.455 5.36-1.455 5.811 0 10.469 4.659 10.469 10.469 0 5.76-4.659 10.47-10.469 10.47-2.855 0-5.459-1.152-7.363-3.056H20.89l.099-.099-13.525-.553-.099-.099h14.326l.051-.099-14.978-.701-.051-.051h5.811s2.956.099 5.311-1.152z" fill="#ea2934"/></svg>