<svg xmlns="http://www.w3.org/2000/svg" width="30" height="30" fill="none"  xmlns:v="https://vecta.io/nano"><circle cx="15" cy="15" r="15" fill="#fff"/><path d="M11.558 24.786c-.572.341-1.092.544-1.637.544a2.7 2.7 0 0 1-2.658-2.544l2.749-1.638 4.274 1.911-2.728 1.727z" fill="#6ca2d8"/><path d="M13.192 17.749l-2.041-.899c-.913-.408-1.774-.748-1.774-1.751 0-.52.158-.793.407-1.065l4.319 1.903-1.071.618c-.295.182-.499.34-.499.567 0 .245.28.455.659.626z" fill="#7fd395"/><path d="M15.197 8.327l-2.094 1.27c-.185.112-.434.293-.434.572 0 .317.483.56.912.765l-2.619-1.156c-.772-.34-1.542-.725-1.542-1.656 0-.391.113-.708.295-.979l5.662-3.459c.679.385 1.337 1.162 1.337 2.206 0 1.117-.565 1.865-1.518 2.437z" fill="#6ca2d8"/><path d="M19.651 12.419l-.52.294-4.325-1.909 5.028-3.026c.678.392 1.343 1.162 1.343 2.205 0 1.116-.549 1.887-1.525 2.436z" fill="#7fd395"/><path d="M15.999 16.091l2.559 1.124c.958.43 1.253.934 1.253 1.57 0 .361-.204.724-.499.975l-4.302-1.911.728-.408c.615-.34.819-.544.819-.771 0-.236-.144-.391-.559-.579" fill="#6ca2d8"/><path d="M20.559 25.534c-1.089-.838-2.249-1.405-3.661-2.046l-6.523-2.886c-1.639-.731-2.726-1.705-2.726-3.344 0-1.593.771-2.364 1.773-2.997l.362-.227c-.249.271-.407.544-.407 1.065 0 1.004.861 1.343 1.774 1.751l7.589 3.345c1.321.567 2.529 1.542 2.529 3.202 0 .913-.347 1.73-.709 2.137z" fill="#1aac52"/><path d="M19.788 19.464l-.476.296c.294-.249.499-.613.499-.975 0-.636-.296-1.141-1.253-1.57l-8.116-3.572c-1.638-.725-2.657-1.66-2.657-3.291 0-1.503.748-2.484 1.932-3.208-.182.271-.294.588-.294.979 0 .93.77 1.316 1.541 1.655l7.889 3.479c1.433.635 2.595 1.592 2.595 3.344 0 1.366-.639 2.227-1.659 2.862z" fill="#0159ad"/></svg>