<svg xmlns="http://www.w3.org/2000/svg" width="30" height="30" fill="none"  xmlns:v="https://vecta.io/nano"><circle cx="15" cy="15" r="15" fill="#fff"/><path d="M23.734 9.483c-.621-.079-1.229-.196-1.841-.355a12.89 12.89 0 0 1-7.064-4.788l-2.031 1.167a15.26 15.26 0 0 0 3.203 3.278c1.58 1.2 3.351 2.068 5.283 2.583.813.211 1.625.353 2.45.441V9.483zm0 6.303v-2.328a17.68 17.68 0 0 1-2.873-.507c-2.129-.575-4.106-1.531-5.844-2.859-1.409-1.059-2.627-2.322-3.644-3.758L9.358 7.495c1.175 1.71 2.597 3.2 4.25 4.453 1.988 1.502 4.239 2.589 6.643 3.25a19.93 19.93 0 0 0 3.483.588zM7.935 8.314a20.46 20.46 0 0 0 4.689 4.934c2.16 1.639 4.583 2.82 7.21 3.525a21.27 21.27 0 0 0 3.899.652v2.327a22.52 22.52 0 0 1-4.496-.745 23.23 23.23 0 0 1-8.023-3.91 23.29 23.29 0 0 1-5.293-5.62l2.014-1.163z" fill="#121b47"/><path d="M7.935 20.92a20.63 20.63 0 0 1 4.689-4.937c2.16-1.627 4.583-2.814 7.21-3.517a21.05 21.05 0 0 1 3.899-.655v-2.33a23.21 23.21 0 0 0-4.496.748 23.37 23.37 0 0 0-8.023 3.909 23.31 23.31 0 0 0-5.293 5.622l2.014 1.159zm15.799-7.462v2.328a16.65 16.65 0 0 0-2.873.501 16.74 16.74 0 0 0-5.844 2.857 16.69 16.69 0 0 0-3.644 3.765L9.358 21.74c1.175-1.705 2.597-3.2 4.25-4.447 1.988-1.508 4.239-2.595 6.643-3.249a18.84 18.84 0 0 1 3.483-.588zm0 6.294c-.621.08-1.229.191-1.841.358-2.873.769-5.327 2.444-7.064 4.786l-2.031-1.166a15.1 15.1 0 0 1 3.203-3.281c1.58-1.197 3.351-2.068 5.283-2.583a15.06 15.06 0 0 1 2.45-.441v2.327z" fill="#ed3426"/></svg>