<svg xmlns="http://www.w3.org/2000/svg" width="30" height="30" fill="none"  xmlns:v="https://vecta.io/nano"><circle cx="15.084" cy="14.801" r="14.639" fill="#ffcf00"/><g fill-rule="evenodd" fill="#000"><path d="M14.994 0A15 15 0 0 0 0 15.001C0 23.277 6.713 30 14.994 30a15.01 15.01 0 0 0 14.998-14.999C29.992 6.715 23.274 0 14.994 0h0zm0 28.8c-7.618 0-13.796-6.186-13.796-13.799A13.81 13.81 0 0 1 14.994 1.2 13.8 13.8 0 0 1 28.79 15.001c0 7.613-6.173 13.799-13.796 13.799zm-5.98-14.493c-1.073-.266-2.014.986-2.544 1.936.183-1.299 1.774-3.417 2.544-1.936zm-2.366.021c.363-1.232 1.218-1.68 1.667-1.325-.608.193-1.07.563-1.667 1.325h0zm2.747 1.977c.551-.469.496-1.153-.36-1.377-.64-.167-2.004.976-2.147 2.238.54-.7 2.126-1.983 2.507-.861zm8.601 3.283c.107-1.623-1.469-2.39-1.779-4.044-.295-1.665 2.463-4.32.72-7.045 3.288 2.651.713 4.221 2.374 6.429-.642-.183-1.283-.773-1.469-1.065-.931 1.216 2.27 2.891.154 5.724zM12.711 6.511l.788.574c-.916.845-2.15.507-3.128 1.362.402-1.065 2.192-1.221 2.34-1.936h0zm2.955 1.196c.378-.417.031-1.018-1.534-1.216 1.63.809-.995.97-1.091 2.337-.848.34-1.536-.219-1.964.167l-.749-.323c-.496.255-.401.934.086 1.137l.107.213c-.529.491-.774.929-.219 1.419.3-.558.449-.746.791-1.028.315.219.871.068 1.617-.746l.065.021c-.597 2.045-2.11 2.374-2.595 2.275.297.443 2.223.714 2.457-.152.556-1.946 2.426-2.781.812-2.75.433-.511 1.908-1.002 2.218-1.356h0zm-4.077 2.374l-.261-.381c.149.402.55.209.321-.36l.775-.005-.835.746zm4.89-3.418a6.47 6.47 0 0 1 1.661 1.445c.102-.824-.373-2.478-1.067-2.859l-.594 1.415z"/><path d="M3.992 13.311c.503-1.32 1.738-2.907 3.731-4.096.454-1.184.302-1.993 5.128-3.851.123-.715.102-1.571.298-1.571.209 0 .926.308 1.427 1.049l.535-.062c.086-.424.368-1.571.749-2.14.348-.552 1.02-.6 1.881.11.903.73 1.531 1.043 2.768 2.614 1.035.47 2.664 1.064 4.07 2.776-.608-.386-1.304-.543-1.87-.6 1.15.987 1.907 2.656 1.325 5.087-.219-2.275-1.892-3.225-2.912-3.95.556 1.925-1.85 1.257-2.575-.178l.637-.036c-.081-2.922-1.453-4.603-2.069-5.113-.785-.658-1.208.913-1.474 2.097l-.85.652.224-.636c-1.218.099-2.585.814-3.425 1.194-2.132.971-2.672 1.441-3.142 3.069-1.688.709-3.637 2.656-4.456 3.585h0zm10.654-.397c.224.261 1.636 2.379.005 5.098.449-1.999-.79-5.797-2.157-3.857.923.402 1.229 1.158.981 1.889-.379-.699-1.346-1.471-2.301-1.148-.483.157-1.111.162-1.584-.532-.613-.902.418-2.019-1.346-1.931 2.139-1.085 1.518 1.017 2.543 1.263 1.193.292 1.331-.448 1.743-.913.337-.412.945-.704 1.581-.281.31-.934-.133-2.4.733-3.188.326-.287 1.346-.246 1.873.167-.746-.011-1.633.892-2.071 3.433h0zm10.885-3.725c1.083 3.782.78 7.425-.337 9.595.133-1.362-1.059-3.35-.579-5.667-2.264 2.197 1.278 7.597-3.867 11.135.77-1.237 1.116-4.315.848-5.426l.722.736c.428-1.409.48-3.423-.326-5.437l1.121.548c.128-3.131-2.158-3.36-2.585-4.216 0 .913 1.067 1.675 1.26 2.88-.749-.366-1.294-.402-1.677-.366.576.423 1.865 2.917 1.485 4.91-.556-.464-1.067-.683-1.629-.719.69 1.033.966 3.751.112 4.977l-.443-1.424c-.407 1.524-1.594 2.155-2.406 2.337 1.015-1.043.812-2.917-.662-3.418-1.325-.459-3.019.449-3.692 3.606-.968.282-3.843-.329-2.126-2.186 1.051.36 3.718-1.431 3.537-2.687-.253-1.738-1.839-2.348-3.099-2.332-1.555.015-2.614 1.461-3.885 2.103-1.065-.162-1.428-.308-1.967-1.732-.068-.866.855-1.467.84-2.359-.759.162-.942-.992-2.415.204l.081-.726c-.545.491-.647 1.075-.658 1.196.261.516.637.985 1.362 1.476.866 2.311 1.758 2.572 2.677 2.666.162.218.84 1.028 1.704 1.163l-.079-1.978c1.887-1.889 3.28-.736 3.467-.24-1.672.344-.49 3.924-3.263 2.327-.117.37.042 1.284.389 1.816.285 2.452 3.366 1.852 4.324 2.285-.102-2.385 1.218-4.127 2.35-3.976 1.132.13 1.427 2.004-.514 3.741.482.25 2.559-.099 3.613-.866.102.605-.678 2.4-1.651 3.657a12.03 12.03 0 0 0 7.968-17.604h0zM4.976 15.867l-1.052-1.122.807-.558.449.188-.386.329.342.61-.159.553zm2.703 2.703l.678-.506c-.073.616.151 1.44.151 1.44l-.83-.934zm4.237.589l.589.047-.156-.892.892.308c-.092.705-.53.924-1.591 1.435l.266-.897zm-2.142 2.338l-.353-.845.843.339-.491.507z"/></g></svg>