<svg xmlns="http://www.w3.org/2000/svg" width="30" height="30" fill="none"  xmlns:v="https://vecta.io/nano"><circle cx="15" cy="15" r="15" fill="#004b91"/><path fill-rule="evenodd" d="M26.591 16.511h-.001.001c-.443-1.042-1.483-2.489-3.918-3.469l-.013-.004c-.117-.041-2.883-1.036-3.161-3.224l-.005-.039-.003-.019-.007-.059h-.504l-.007.08-.005.036c-.073.569-.33 1.108-.754 1.607-.425-.501-.681-1.041-.753-1.609l-.005-.039-.008-.079h-.501l-.011.064-.003.011-.007.043c-.074.589-.342 1.143-.788 1.65-.445-.509-.713-1.064-.787-1.653l-.005-.036v-.068l-.07-.012h-.446l-.008.081-.005.033c-.078.611-.364 1.183-.841 1.71-.477-.527-.763-1.1-.84-1.709l-.004-.033-.002-.015v-.067h-.519l-.002.075v.01l-.005.028c-.075.597-.349 1.156-.804 1.671-.455-.512-.729-1.072-.804-1.67l-.004-.036-.005-.021-.007-.058h-.502l-.016.115c-.284 2.231-3.132 3.216-3.161 3.226l-.015.005c-2.438.98-3.448 2.43-3.865 3.473-.428 1.062-.345 1.924-.324 2.086l.036.23h.226l.217-.004H5.33l.17.004.301-.005-.04-.297c-.002-.021-.017-.133-.017-.31 0-.855.334-3.258 3.878-4.686.123-.041 1.235-.444 2.178-1.293a6.06 6.06 0 0 0 .593.466c-.429.224-.73.329-.734.329l-.014.006c-2.439.98-3.449 2.43-3.867 3.473a4.71 4.71 0 0 0-.345 1.73c0 .217.019.348.021.362l.035.225h.225l.214-.004h1.727l.171.006h.28l-.035-.466-.005-.163c0-.906.363-3.253 3.88-4.669l.017-.006.016.006a75.98 75.98 0 0 0 .447.196c-1.501.919-2.19 2.02-2.498 2.79-.291.719-.346 1.346-.346 1.721 0 .222.019.355.021.369l.035.224h.226l.199-.002 5.914-.006.403.004h.061l.027-.233c0-.012.012-.104.012-.259a4.75 4.75 0 0 0-.392-1.83c-.328-.768-1.039-1.863-2.54-2.779l.438-.192.073-.027.061.023c3.659 1.473 3.977 3.949 3.977 4.765l-.01.238-.039.215-.015.081h.49l1.802-.004.237.004h.233l.03-.233.01-.262c0-.365-.056-1.039-.391-1.828-.443-1.041-1.483-2.488-3.919-3.467l-.02-.007c-.125-.046-.446-.175-.841-.389.2-.144.384-.294.551-.45.96.887 2.102 1.297 2.231 1.341 3.655 1.471 3.975 3.959 3.975 4.778v.057l-.037.388-.007.074h.469l1.665-.006.2.008h.235l.027-.233a2.56 2.56 0 0 0 .012-.267c0-.357-.056-1.029-.394-1.82h0zm-.134 1.784h-1.513a4.79 4.79 0 0 0-.393-1.788c-.443-1.043-1.483-2.49-3.916-3.468l-.013-.005a6.64 6.64 0 0 1-2.036-1.226 3.97 3.97 0 0 0 .647-1.014c.818 1.889 3.15 2.705 3.25 2.74 3.64 1.467 3.971 3.935 3.974 4.76h0zm-9.297-5.324c.608.36 1.108.537 1.171.559 3.64 1.466 3.974 3.939 3.977 4.766H20.62a4.76 4.76 0 0 0-.391-1.79c-.414-.97-1.361-2.318-3.515-3.293l.447-.241zm-.646-1.128c.293-.33.52-.683.68-1.051.154.355.37.695.649 1.015-.204.186-.431.366-.681.531a5.84 5.84 0 0 1-.647-.495h0zm.147.799l-.605.296-.511-.246c.214-.148.413-.305.592-.469.161.145.336.285.523.419h0zm1.291 5.653h-5.844l-.002-.089c0-.779.28-2.77 2.877-4.2 2.711 1.488 2.966 3.581 2.968 4.289h0zm-2.919-5.276l.368.193-.414.196-.365-.173.412-.216zm-.673-1.129a4.04 4.04 0 0 0 .724-1.1c.159.368.385.72.678 1.052a5.6 5.6 0 0 1-.729.553 5.71 5.71 0 0 1-.673-.504zm.16.802l-.558.266-.54-.26c.199-.137.385-.28.553-.431.169.149.351.291.545.425zm-4.978 5.603H7.959l-.003-.097c0-.906.365-3.256 3.88-4.669.12-.041.553-.204 1.07-.5l.396.206c-2.12.974-3.029 2.315-3.416 3.277-.29.724-.345 1.354-.345 1.725l.001.058zm3.362-5.891c-.268-.172-.51-.356-.726-.548a4.01 4.01 0 0 0 .691-1.066c.167.386.408.755.723 1.1-.206.18-.437.352-.688.514h0zm-7.687 5.891H3.603l-.002-.096c0-.906.364-3.257 3.879-4.671.097-.033 2.427-.84 3.247-2.74a3.94 3.94 0 0 0 .693 1.067c-.901.8-1.967 1.173-1.978 1.177l-.013.005c-2.436.98-3.447 2.43-3.867 3.473a4.71 4.71 0 0 0-.344 1.726v.058z" fill="#fff"/></svg>