<svg xmlns="http://www.w3.org/2000/svg" width="30" height="30" fill="none"  xmlns:v="https://vecta.io/nano"><circle cx="15" cy="15" r="15" fill="#002469"/><g fill="#e1091d"><path d="M20.245 24.946c0 .503.692.566 1.07.566h.315c.944-.062.944-.44.944-.566V4.712c.062-.504-.63-.566-1.07-.566h-.186c-.38 0-1.072.062-1.072.566v20.234zm-12.646 0c0 .503.692.566 1.07.566h.315c.944-.062.944-.44.944-.566V4.712c0-.504-.63-.566-1.07-.566h-.186c-.443 0-1.072.062-1.072.566v20.234zm4.215 0c0 .503.692.566 1.07.566h.378c.944-.062.944-.44.944-.566V4.712c0-.504-.692-.566-1.07-.566h-.252c-.378 0-1.07.062-1.07.566v20.234zm4.215 0c0 .503.692.566 1.07.566h.315c.944-.062.944-.44.944-.566V4.712c0-.504-.692-.566-1.07-.566h-.186c-.38 0-1.072.062-1.072.566v20.234z"/><path d="M4.956 13.635c-.504 0-.566.691-.566 1.069v.377c.062.943.44.943.566.943h20.259c.503 0 .566-.691.566-1.069v-.251c0-.377-.062-1.069-.566-1.069H4.956z"/></g></svg>