<svg xmlns="http://www.w3.org/2000/svg" width="30" height="30" fill="none"  xmlns:v="https://vecta.io/nano"><circle cx="15" cy="15" r="15" fill="#009cbc"/><path d="M21.285 18.807c.283.014.499.256.487.545a.51.51 0 0 1-.53.496c-.278-.011-.496-.254-.487-.543s.252-.509.53-.498zM8.493 19.848a.51.51 0 0 1-.529-.496c-.013-.29.204-.531.485-.545s.517.213.529.498-.206.532-.485.543zm5.798-7.443l.091.073v.015l-.091-.089zm1.127.02l.025-.02-.025.026v-.006zm3.628 8.756c0 .289-.229.523-.509.523s-.509-.234-.509-.523.227-.518.509-.518.509.231.509.518zm-7.849.523c-.281 0-.507-.234-.507-.523a.51.51 0 0 1 .507-.518c.281 0 .509.231.509.518s-.228.523-.509.523zm-3.771-4.966c-.281.006-.515-.22-.52-.508s.216-.525.496-.533.514.222.52.51-.216.525-.496.531zm.537-3.226c-.283.016-.524-.201-.54-.489a.52.52 0 0 1 .478-.551c.281-.017.519.202.537.491s-.199.533-.476.549zm1.353-3.037c-.278.029-.526-.181-.555-.468a.52.52 0 0 1 .458-.568c.281-.027.527.181.555.467a.52.52 0 0 1-.458.569zm1.942-2.702c-.279.035-.531-.172-.562-.456s.166-.543.448-.577c.276-.031.529.172.561.46a.52.52 0 0 1-.448.573zm2.134-2.491c-.28.029-.528-.178-.56-.462s.174-.543.452-.574.529.178.56.464a.52.52 0 0 1-.451.573zm2.598-.573c.029-.287.28-.494.557-.464a.52.52 0 0 1 .453.574c-.03.285-.279.492-.559.462s-.482-.289-.451-.573zm2.037 2.49c.032-.288.284-.491.562-.46s.48.29.448.577a.51.51 0 0 1-.563.456c-.279-.032-.479-.29-.447-.573zm2.487 2.238a.52.52 0 0 1 .455.568.51.51 0 0 1-.553.468.52.52 0 0 1-.459-.569c.027-.287.276-.494.557-.467zm1.316 3.034c.28.018.495.263.477.551s-.258.505-.538.489-.493-.264-.477-.549.256-.507.538-.491zm.5 3.224c.281.008.502.245.496.533s-.24.515-.521.508-.501-.245-.495-.531.239-.515.52-.51zm-1.248.73c.096.599.593 1.059 1.207 1.072.691.019 1.265-.544 1.281-1.25s-.53-1.296-1.221-1.313c-.627-.016-1.154.443-1.26 1.054-.648-.017-3.52.026-5.416 2.284l-.013-.188c.227-1.3 1.162-4.116 4.989-4.596.179.435.585.755 1.079.786.691.04 1.282-.499 1.323-1.208s-.486-1.314-1.175-1.356-1.284.497-1.324 1.207v.016c-.607.051-3.439.406-5.019 2.472l-.017-.461c.75-3.07 3.117-4.184 3.816-4.448a1.25 1.25 0 0 0 1.014.737c.689.068 1.302-.448 1.367-1.156.067-.702-.436-1.328-1.127-1.398s-1.299.446-1.367 1.152c-.005.053-.007.107-.005.162-1.508.408-2.723 1.371-3.472 2.104.033-.398.295-2.834 1.766-4.108a1.22 1.22 0 0 0 .882.539c.686.083 1.309-.423 1.387-1.126s-.414-1.34-1.103-1.419-1.307.422-1.386 1.127a1.27 1.27 0 0 0 .015.395c-.534.366-1.383 1.09-1.94 2.248-.247-1.944.216-3.264.513-3.874a1.2 1.2 0 0 0 .487.157c.686.078 1.305-.435 1.376-1.139s-.426-1.335-1.113-1.409-1.305.435-1.377 1.139a1.29 1.29 0 0 0 .246.906c-.253.373-.441.798-.58 1.239-.139-.441-.326-.866-.581-1.239a1.29 1.29 0 0 0 .249-.906c-.074-.704-.692-1.215-1.378-1.139s-1.187.704-1.114 1.409.691 1.217 1.378 1.139c.177-.016.34-.073.486-.157.291.599.741 1.872.528 3.755h-.017l-.003.147-.019.143c-.554-1.261-1.46-2.037-2.016-2.419a1.35 1.35 0 0 0 .014-.395c-.077-.705-.7-1.209-1.387-1.127s-1.18.715-1.103 1.419.7 1.209 1.387 1.126c.373-.041.688-.246.884-.539 1.468 1.274 1.733 3.71 1.766 4.108-.75-.733-1.962-1.696-3.472-2.104.002-.055 0-.109-.004-.162-.068-.706-.681-1.22-1.369-1.152s-1.193.696-1.126 1.398c.066.708.679 1.223 1.367 1.156.459-.045.833-.341 1.015-.737.717.271 3.191 1.438 3.875 4.695l-.014.302c-1.566-2.141-4.466-2.508-5.081-2.559v-.016c-.041-.709-.635-1.248-1.324-1.207s-1.218.649-1.178 1.356.634 1.249 1.326 1.208c.488-.032.898-.351 1.077-.786 4.089.514 4.876 3.696 5.025 4.843-1.899-2.315-4.814-2.36-5.463-2.343a1.26 1.26 0 0 0-1.262-1.054c-.693.017-1.239.604-1.222 1.313s.591 1.269 1.282 1.25c.612-.013 1.11-.474 1.207-1.072 1.087.097 1.958.361 2.65.714-1.046.128-1.792.729-2.163 1.101a1.23 1.23 0 0 0-.721-.195c-.691.032-1.228.63-1.198 1.338s.616 1.257 1.307 1.227 1.227-.63 1.198-1.34c-.012-.259-.099-.499-.238-.696 1.436-1.167 2.724-.681 3.167-.453.537.545.863 1.124 1.06 1.596-.771-.465-1.547 0-1.942.323a1.22 1.22 0 0 0-.571-.142c-.692 0-1.253.573-1.253 1.282s.56 1.285 1.253 1.285 1.252-.576 1.252-1.285c0-.274-.085-.531-.231-.741 1.177-.698 1.617.44 1.721.798-.148 1.957-.324 3.525-.535 4.039 0 0 .597.472 1.495.434.9.038 1.498-.434 1.498-.434-.215-.53-.398-2.17-.548-4.205.171-.447.637-1.243 1.665-.633a1.32 1.32 0 0 0-.23.741c0 .709.561 1.285 1.253 1.285s1.252-.576 1.252-1.285-.56-1.282-1.252-1.282a1.22 1.22 0 0 0-.572.142c-.395-.323-1.171-.788-1.941-.323.197-.472.522-1.051 1.059-1.594.44-.23 1.732-.719 3.167.451-.138.198-.226.437-.238.696-.029.71.507 1.306 1.197 1.34s1.277-.52 1.308-1.227-.509-1.305-1.198-1.338a1.23 1.23 0 0 0-.722.195c-.37-.372-1.119-.973-2.163-1.101.692-.354 1.562-.617 2.649-.714z" fill="#fff"/></svg>