<svg xmlns="http://www.w3.org/2000/svg" width="30" height="30" fill="none"  xmlns:v="https://vecta.io/nano"><circle cx="15" cy="15" r="15" fill="#00924c"/><path fill-rule="evenodd" d="M15.874 5.054l1.576 1.537H7.568s-.83.086-.96.701 0 .874 0 .874L5.033 9.612V6.677s.473-1.623 2.147-1.623h8.694zM8.667 7.199l2.201-.027-6.988 6.987s-.526.648-.182 1.175.618.618.618.618l-.091 2.136-2.075-2.075s-.813-1.483.371-2.667l6.148-6.148zm-3.652 6.675l1.537-1.575v9.882s.086.83.702.959.873 0 .873 0l1.446 1.575H6.638s-1.623-.474-1.623-2.148v-8.694zm2.457 7.416l-.027-2.201 6.988 6.987s.648.527 1.175.182.617-.617.617-.617l2.136.091-2.076 2.075s-1.482.813-2.666-.37L7.472 21.29zm17.378-5.376l-1.537 1.576V7.607s-.086-.831-.702-.959-.874 0-.874 0l-1.445-1.575h2.935s1.622.473 1.622 2.147v8.694zm-2.456-7.207l.027 2.201-6.987-6.988s-.648-.526-1.175-.182-.617.618-.617.618l-2.137-.091 2.076-2.076s1.483-.813 2.667.371l6.148 6.148zm-1.111 13.71l-2.201.027 6.987-6.988s.527-.648.183-1.175-.618-.617-.618-.617l.091-2.136 2.076 2.075s.813 1.483-.371 2.667l-6.147 6.147zm-7.304 2.315l-1.575-1.537h9.882s.831-.086.959-.702 0-.873 0-.873l1.575-1.447v2.936s-.473 1.622-2.147 1.622h-8.694zm4.535-14.765h1.973v9.969H9.896V18.17h8.618V9.967zm-.674 0v7.372H9.896V15.47h6.022V9.967h1.921zm-2.7 0v4.673H9.896v-1.765h3.375V9.967h1.869zm-5.243-.073h.279l-.013.235s.124-.246.215-.247h1.909v.201h-1.849s-.222.462-.239.985c-.023.747.191.985.191.985h1.921l-.012.238h-1.933s-.095-.024-.167-.214v.178h-.302V9.894zm.611 2.02v-1.497s.055-.157.193-.157h1.593v.239h-1.561v.29h1.561v.237h-1.561v.888h-.225zm.421-.825h.208v.398h.932v-.404h.218v.837h-.225v-.238h-.937v.238h-.196v-.831zm2.222 2.424h1.563s-.039.187-.22.205-.34-.163-.617-.055-.349.3-.349.3-.182-.154-.254-.245-.122-.205-.122-.205zm.549-.472s-.006-.223.081-.513.286-.472.286-.472-.009.173.018.281.145.26.145.26.063-.214.154-.341.19-.218.19-.218-.081.422-.046.604a4.61 4.61 0 0 0 .109.408l-.939-.009zm0 1.021s.05-.227.277-.227.263.09.453.054.314-.091.314-.091-.133.2-.35.227-.285-.109-.462-.072-.232.109-.232.109zm.135.168s.051-.132.241-.132.208.081.327.072.218-.072.218-.072-.11.168-.255.178-.253-.087-.353-.078-.178.032-.178.032zm-2.043-.825h.818v.792h-.818v-.792zm0 2.596h.817v.792h-.817v-.792zm1.298 0h.818v.792h-.818v-.792zm3.403-2.308h.688l.3 3.28h-1.304l.316-3.28zm.357-.157c.258 0 .573-.201.588-.673.011-.376-.474-.787-.545-1.003s-.086-.33-.086-.33-.14.206-.2.416c-.058.2-.53.571-.444 1.016.061.317.287.573.687.573zm-.239 6.017s.451-.587 1.132-.587 1.198.565 1.198.565l-2.33.023zm1.34-1.29s-.232.032-.232.229.22.255.22.255-.127-.107-.105-.267.116-.217.116-.217zm-6.197.978h1.143v-.634h1.152v.221h-.796v.425h.761v.255h-2.26v-.266zm7.41-3.096h.623v3.401h-.623v-3.401zm0-2.474h.623v1.486h-.623v-1.486zm-.208-.823h1.038v.597h-1.038v-.597zm0 2.466h1.038v.596h-1.038v-.596zm.26-2.622v-.519s.025-.286.311-.286.26.26.26.26v.545h-.57zm.37-1.542s-.232.032-.232.229.22.255.22.255-.128-.107-.104-.267.115-.217.115-.217z" fill="#fff"/></svg>