<svg xmlns="http://www.w3.org/2000/svg" width="30" height="30" fill="none"  xmlns:v="https://vecta.io/nano"><circle cx="15" cy="15" r="15" fill="#fff"/><path fill-rule="evenodd" d="M22.932 9.776L18.4 5.316h-6.579L7.215 9.848v4.679l.731.657-.731.659v4.679l4.533 4.459h6.724l4.459-4.386V15.77l-.657-.586.657-.584V9.776zM15.11 23.59l-5.408-5.408.584-.584 1.463 1.389h6.724l1.463-1.463.657.659-5.483 5.408zm-2.412-8.406l2.412-2.412 2.486 2.412-2.486 2.414-2.412-2.414zm7.237-2.412L18.4 11.311h-6.579l-1.535 1.534-.584-.657 5.408-5.41 5.483 5.41-.657.585z" fill="#e32728"/></svg>