<svg xmlns="http://www.w3.org/2000/svg" width="30" height="30" fill="none"  xmlns:v="https://vecta.io/nano"><circle cx="15" cy="15" r="15" fill="#134984"/><path d="M10.94 17.838l-.033.035c-.548.56-1.183.856-1.838.856-1.367 0-2.358-1.025-2.358-2.438s.991-2.439 2.358-2.439c.655 0 1.29.297 1.838.857l.033.034.881-1.063-.023-.028c-.73-.864-1.608-1.284-2.685-1.284s-2.071.362-2.785 1.02c-.773.711-1.181 1.715-1.181 2.902s.408 2.191 1.181 2.903c.714.658 1.704 1.02 2.785 1.02s1.955-.421 2.685-1.285l.023-.029m.888-6.409v7.578h1.551V12.49m6.082 5.93c-.414.252-.8.379-1.148.379-.503 0-.727-.264-.727-.855v-4.02h1.579v-1.427h-1.579v-2.36l-1.523.816v1.544h-1.312v1.427h1.313v4.277c0 1.166.691 1.962 1.721 1.982.7.013 1.121-.193 1.377-.349l.016-.01.374-1.461m1.194-5.873v7.578h1.552V12.49" fill="#fff"/><path d="M24.156 11.264c-1.294-1.941-3.685-3.311-6.239-3.31-2.514.001-4.904 1.33-6.241 3.31h1.784c1.217-1.254 2.796-1.936 4.457-1.937 1.631-.001 3.235.683 4.455 1.937" fill="#ec1f30"/></svg>