<svg xmlns="http://www.w3.org/2000/svg" viewBox="0 0 283.4 94.6" width="68" height="22.6"  xmlns:v="https://vecta.io/nano"><path d="M104.09 11.83h45.64v13.84h-30.65V39.5h28.34v13.84h-28.34v26.51h-15zm56.4 0h25.27a50 50 0 0 1 10 1 22.76 22.76 0 0 1 8.24 3.28 16.66 16.66 0 0 1 5.57 6.34 21.66 21.66 0 0 1 2.07 10 23.17 23.17 0 0 1-1.92 10 16.41 16.41 0 0 1-5.29 6.44 21.4 21.4 0 0 1-8 3.41 46.9 46.9 0 0 1-10 1h-11v26.55h-15zm15 28.82h10a19.08 19.08 0 0 0 3.89-.38 10.37 10.37 0 0 0 3.36-1.3 6.86 6.86 0 0 0 2.4-2.5 7.84 7.84 0 0 0 .92-4 6.76 6.76 0 0 0-1.21-4.18 7.87 7.87 0 0 0-3.07-2.45 13.06 13.06 0 0 0-4.18-1.11 42.77 42.77 0 0 0-4.42-.24h-7.69zm62.43 3.66l-22.48-32.48h18.83l14.51 23.83 13.93-23.83h18.16l-22 32.17 24.59 35.83h-18.83L248 52.47l-16.13 27.38H214.1z" fill="#242b57"/><path d="M38.45 67.09L29 54.25c-1.41-1.91-3.84-4.43-3.84-7s2.42-5 3.84-6.95l9.45-12.8a6.92 6.92 0 0 1 1.31-1.4V11.3c0-11.88-5-14.88-11-6.65L8.25 32.34C5.21 36.46 0 41.87 0 47.3s5.22 10.84 8.25 15l20.46 27.64c6.08 8.23 11 5.26 11-6.64V68.5a6.74 6.74 0 0 1-1.26-1.41z" fill="#0987c9"/><path d="M78.64 32.34L58.17 4.65c-6.07-8.23-11-5.23-11 6.65v14.8a7.51 7.51 0 0 1 1.3 1.4l9.5 12.85c1.42 1.92 3.84 4.43 3.84 6.95s-2.42 5-3.84 7l-9.5 12.84a7.39 7.39 0 0 1-1.3 1.42V83.3c0 11.91 5 14.87 11 6.64l20.47-27.66c3-4.14 8.25-9.57 8.25-15s-5.21-10.82-8.25-14.94z" fill="#242b57"/></svg>