<svg width="823" height="577" viewBox="0 0 823 577" fill="none" xmlns="http://www.w3.org/2000/svg">
<path d="M588 88H236C126 88 36 178 36 288C36 398 126 488 236 488H588C698 488 788 398 788 288C788 178 698 88 588 88Z" fill="white"/>
<path d="M588 104.2C612.7 104.2 636.7 109.1 659.3 118.7C681.2 128 700.8 141.3 717.8 158.2C734.7 175.1 748 194.8 757.3 216.7C766.9 239.3 771.8 263.3 771.8 288C771.8 312.7 766.9 336.7 757.3 359.3C748 381.2 734.7 400.8 717.8 417.8C700.9 434.7 681.2 448 659.3 457.3C636.7 466.9 612.7 471.8 588 471.8H236C211.3 471.8 187.3 466.9 164.7 457.3C142.8 448 123.2 434.7 106.2 417.8C89.3 400.9 76 381.2 66.7 359.3C57.1 336.7 52.2 312.7 52.2 288C52.2 263.3 57.1 239.3 66.7 216.7C76 194.8 89.3 175.2 106.2 158.2C123.1 141.3 142.8 128 164.7 118.7C187.3 109.1 211.3 104.2 236 104.2H588ZM588 88H236C126 88 36 178 36 288C36 398 126 488 236 488H588C698 488 788 398 788 288C788 178 698 88 588 88Z" fill="#3C4043"/>
<path d="M394.6 302.2V362.7H375.4V213.3H426.3C439.2 213.3 450.2 217.6 459.2 226.2C468.4 234.8 473 245.3 473 257.7C473 270.4 468.4 280.9 459.2 289.4C450.3 297.9 439.3 302.1 426.3 302.1H394.6V302.2ZM394.6 231.7V283.8H426.7C434.3 283.8 440.7 281.2 445.7 276.1C450.8 271 453.4 264.8 453.4 257.8C453.4 250.9 450.8 244.8 445.7 239.7C440.7 234.4 434.4 231.8 426.7 231.8H394.6V231.7Z" fill="#3C4043"/>
<path d="M523.2 257.1C537.4 257.1 548.6 260.9 556.8 268.5C565 276.1 569.1 286.5 569.1 299.7V362.7H550.8V348.5H550C542.1 360.2 531.5 366 518.3 366C507 366 497.6 362.7 490 356C482.4 349.3 478.6 341 478.6 331C478.6 320.4 482.6 312 490.6 305.8C498.6 299.5 509.3 296.4 522.6 296.4C534 296.4 543.4 298.5 550.7 302.7V298.3C550.7 291.6 548.1 286 542.8 281.3C537.5 276.6 531.3 274.3 524.2 274.3C513.5 274.3 505 278.8 498.8 287.9L481.9 277.3C491.2 263.8 505 257.1 523.2 257.1ZM498.4 331.3C498.4 336.3 500.5 340.5 504.8 343.8C509 347.1 514 348.8 519.7 348.8C527.8 348.8 535 345.8 541.3 339.8C547.6 333.8 550.8 326.8 550.8 318.7C544.8 314 536.5 311.6 525.8 311.6C518 311.6 511.5 313.5 506.3 317.2C501 321.1 498.4 325.8 498.4 331.3Z" fill="#3C4043"/>
<path d="M673.5 260.4L609.5 407.6H589.7L613.5 356.1L571.3 260.4H592.2L622.6 333.8H623L652.6 260.4H673.5Z" fill="#3C4043"/>
<path d="M318.23 290C318.23 283.74 317.67 277.75 316.63 271.99H236.15V304.99L282.5 305C280.62 315.98 274.57 325.34 265.3 331.58V352.99H292.89C309 338.08 318.23 316.04 318.23 290Z" fill="#4285F4"/>
<path d="M265.31 331.58C257.63 336.76 247.74 339.79 236.17 339.79C213.82 339.79 194.86 324.73 188.07 304.43H159.61V326.51C173.71 354.49 202.69 373.69 236.17 373.69C259.31 373.69 278.75 366.08 292.9 352.98L265.31 331.58Z" fill="#34A853"/>
<path d="M185.39 288.05C185.39 282.35 186.34 276.84 188.07 271.66V249.58H159.61C153.78 261.15 150.5 274.21 150.5 288.05C150.5 301.89 153.79 314.95 159.61 326.52L188.07 304.44C186.34 299.26 185.39 293.75 185.39 288.05Z" fill="#FABB05"/>
<path d="M236.17 236.3C248.8 236.3 260.11 240.65 269.04 249.15L293.49 224.72C278.64 210.89 259.28 202.4 236.17 202.4C202.7 202.4 173.71 221.6 159.61 249.58L188.07 271.66C194.86 251.36 213.82 236.3 236.17 236.3Z" fill="#E94235"/>
</svg>
