<svg width="18" height="19" viewBox="0 0 18 19" fill="none" xmlns="http://www.w3.org/2000/svg">
<path d="M0 9.25C0 4.29297 4.00781 0.25 9 0.25C13.957 0.25 18 4.29297 18 9.25C18 14.2422 13.957 18.25 9 18.25C4.00781 18.25 0 14.2422 0 9.25ZM13.043 7.70312C13.4297 7.31641 13.4297 6.71875 13.043 6.33203C12.6562 5.94531 12.0586 5.94531 11.6719 6.33203L7.875 10.1289L6.29297 8.58203C5.90625 8.19531 5.30859 8.19531 4.92188 8.58203C4.53516 8.96875 4.53516 9.56641 4.92188 9.95312L7.17188 12.2031C7.55859 12.5898 8.15625 12.5898 8.54297 12.2031L13.043 7.70312Z" fill="#30AD7F"/>
</svg>
