<svg version="1.1" xmlns="http://www.w3.org/2000/svg" xmlns:xlink="http://www.w3.org/1999/xlink" x="0px" y="0px" viewBox="0 0 600 600" enable-background="new 0 0 600 600" xml:space="preserve" Googl="true">
<g id="Layer_1">
	<path fill-rule="evenodd" clip-rule="evenodd" fill="#FEFEFE" d="M105.618,455.805c-22.281-26.751-37.742-57.1-46.866-90.59   C21.038,226.796,109.068,84.764,249.827,56.679c130.896-26.117,258.696,52.443,291.906,181.159   c20.316,78.743,4.118,151.033-45.34,215.72c-0.802,1.048-1.804,1.944-2.712,2.911c-2.82,2.246-6.102,2.372-9.489,2.111   c-14.106-1.084-27.502-4.685-40.097-11.196c-10.659-5.511-21.413-10.802-33.197-13.57c-17.974-4.224-34.979-0.652-51.568,6.358   c-9.808,4.146-19.382,8.804-29.387,12.525c-23.646,8.798-46.565,6.943-69.272-3.446c-11.479-5.254-22.804-10.914-35.148-14.17   c-17.891-4.718-35.193-3.302-52.257,3.573c-10.501,4.231-20.658,9.279-31.31,13.127c-8.622,3.115-17.402,5.621-26.676,5.931   C111.877,457.826,108.649,457.404,105.618,455.805z"/>
	<path fill-rule="evenodd" clip-rule="evenodd" fill="#FEFEFE" d="M425.157,514.972c-45.925,26.112-95.27,36.917-147.834,32.324   c-36.607-3.198-70.971-13.957-102.753-32.605c-0.865-2.54,1.184-3.335,2.745-3.917c9.899-3.69,20.085-5.232,30.727-4.897   c17.536,0.552,32.845,7.859,48.22,14.998c13.111,6.087,26.667,10.735,41.139,11.095c12.014,0.299,23.785-2.183,35.094-6.546   c10.099-3.896,19.821-8.646,29.783-12.846c18.768-7.912,37.843-9.782,57.314-2.618   C422.117,510.889,424.722,511.726,425.157,514.972z"/>
	<path fill-rule="evenodd" clip-rule="evenodd" fill="#BDB1AB" d="M166.658,509.9c-4.987-2.247-8.975-5.952-13.315-9.141   c0.357-2.55,2.443-3.429,4.358-4.396c29.593-14.959,59.436-16.646,89.764-2.035c10.031,4.832,20.168,9.506,30.88,12.772   c20.066,6.117,39.131,2.311,57.848-5.545c9.05-3.799,17.826-8.224,27.053-11.622c23.116-8.516,45.888-8.267,68.275,2.512   c3.3,1.589,6.809,2.701,10.006,4.521c1.907,1.086,3.881,2.06,3.964,4.669c-4.348,2.924-8.064,6.793-13.077,8.721   c-3.08,0.408-5.875-0.503-8.697-1.642c-19.618-7.914-39.196-7.739-58.849,0.104c-10.21,4.075-20.104,8.854-30.29,12.981   c-26.287,10.654-51.938,9.145-77.269-3.256c-12.267-6.005-24.815-11.265-38.325-14.111c-14.882-3.136-29.114-1.024-43.101,4.068   C172.828,509.612,169.88,510.384,166.658,509.9z"/>
	<path fill-rule="evenodd" clip-rule="evenodd" fill="#99877D" d="M105.618,455.805c18.342,0.667,35.021-5.287,51.358-12.752   c12.271-5.607,24.634-10.975,38.245-12.582c17.792-2.102,34.368,2.203,50.426,9.362c6.535,2.913,13.065,5.839,19.596,8.765   c21.839,9.781,43.896,9.92,66.004,1.14c11.438-4.542,22.596-9.789,34.048-14.29c22.153-8.705,43.999-7.239,65.396,2.828   c7.079,3.332,14.084,6.82,21.167,10.145c13.251,6.22,27.379,7.979,41.823,8.05c-1.517,2.867-3.613,5.239-6.174,7.214   c-6.251,3.712-12.712,1.485-18.979,0.346c-11.394-2.071-21.881-6.801-32.159-11.997c-7.126-3.603-14.249-7.141-21.968-9.463   c-17.998-5.415-35.158-2.835-52.011,4.542c-12.489,5.467-24.706,11.637-37.923,15.294c-23.152,6.406-45.433,3.651-67.057-6.352   c-7.697-3.561-15.394-7.134-23.242-10.365c-23.141-9.528-45.504-6.762-67.586,3.776c-13.216,6.307-26.701,12.1-41.26,14.654   c-4.331,0.76-8.851,2.043-13.095-0.611C109.57,461.33,107.403,458.731,105.618,455.805z"/>
	<path fill-rule="evenodd" clip-rule="evenodd" fill="#99877D" d="M482.161,470.011c-2.462,2.435-4.925,4.868-7.388,7.303   c-6.906,2.46-13.035-0.834-19.253-2.811c-11.47-3.645-21.644-10.228-32.712-14.832c-18.796-7.82-37.46-7.852-56.301-0.15   c-10.015,4.094-19.74,8.831-29.782,12.853c-26.606,10.656-52.808,9.928-78.887-2.052c-11.313-5.196-22.483-10.775-34.641-14.046   c-15.923-4.283-31.267-2.729-46.424,3.187c-10.697,4.176-21.013,9.248-31.743,13.344c-4.681,1.785-9.503,3.006-14.332,4.276   c-2.327,0.612-4.241-0.28-6.323-0.692c-2.574-1.912-4.795-4.174-6.681-6.766c0.519-1.843,1.959-2.771,3.642-3.013   c15.244-2.182,28.975-8.776,42.683-15.119c26.922-12.458,53.626-12.363,80.625-0.506c10.801,4.744,21.343,10.061,32.677,13.638   c18.566,5.86,36.479,3.346,54.175-3.25c12.316-4.59,23.835-11.093,36.342-15.266c20.834-6.951,41.133-5.535,61.266,3.007   c10.269,4.357,19.701,10.507,30.439,13.816c6.206,1.912,12.354,3.988,18.893,4.505   C480.113,467.569,481.812,467.865,482.161,470.011z"/>
	<path fill-rule="evenodd" clip-rule="evenodd" fill="#99877D" d="M468.718,482.705c-1.798,2.643-4.45,4.396-6.764,6.502   c-5.79,0.73-10.652-2.024-15.613-4.264c-6.973-3.146-13.753-6.697-20.676-9.96c-21.915-10.325-43.425-8.849-65.022,0.963   c-12.095,5.493-23.982,11.561-36.976,14.863c-21.914,5.571-43.119,3.622-63.799-5.504c-9.576-4.226-19.001-8.771-28.837-12.458   c-20.729-7.768-40.711-5.803-60.519,3.158c-8.476,3.835-16.96,7.686-25.709,10.905c-2.746,1.011-5.408,1.588-8.248,0.626   c-2.539-1.618-4.893-3.445-6.698-5.896c0.295-2.154,1.925-3.104,3.684-3.65c13.388-4.152,25.775-10.751,38.809-15.781   c23.082-8.909,45.82-7.847,68.52,1.329c9.412,3.806,18.557,8.201,27.892,12.178c20.967,8.932,41.733,7.963,62.606-0.22   c9.61-3.768,18.87-8.314,28.398-12.263c23.655-9.803,47.097-9.896,70.635,0.544c11.547,5.121,22.447,11.708,34.645,15.365   C466.842,479.682,468.5,480.481,468.718,482.705z"/>
	<path fill-rule="evenodd" clip-rule="evenodd" fill="#99877D" d="M457.225,492.847c-2.223,2.2-4.614,4.179-7.411,5.623   c-2.789,0.719-5.216-0.281-7.617-1.543c-7.219-3.794-14.576-7.339-22.188-10.23c-18.625-7.075-37.023-6.201-55.312,1.718   c-8.998,3.896-17.908,7.991-26.988,11.716c-28.362,11.636-56.1,10.058-83.474-3.188c-7.332-3.548-14.812-6.762-22.404-9.742   c-20.967-8.229-41.342-5.985-61.476,2.914c-4.712,2.082-9.409,4.205-14.146,6.235c-2.552,1.095-5.011,1.636-7.713,1.126   c-2.419-1.766-4.99-3.348-6.926-5.7c0.401-2.04,1.889-2.979,3.638-3.759c9.111-4.059,18.166-8.242,27.48-11.836   c23.244-8.969,46.166-7.767,68.933,1.821c9.807,4.131,19.404,8.729,29.29,12.686c22.116,8.852,43.618,6.154,64.921-2.906   c11.009-4.682,21.676-10.174,33.158-13.74c20.556-6.386,40.684-5.244,60.327,3.392c7.76,3.411,15.159,7.61,22.969,10.947   C454.369,489.27,456.746,490.074,457.225,492.847z"/>
	<path fill-rule="evenodd" clip-rule="evenodd" fill="#FEFEFE" d="M482.161,470.011c-14.284-0.643-27.272-5.586-39.825-11.987   c-10.09-5.146-20.246-10.153-31.452-12.454c-16.29-3.345-32.15-1.691-47.482,4.619c-9.227,3.798-18.307,7.952-27.469,11.908   c-24.552,10.602-48.988,10.967-73.447-0.501c-9.478-4.444-18.959-8.911-28.887-12.361c-20.33-7.065-40.428-6.765-60.513,1.047   c-14.091,5.48-27.398,12.97-42.215,16.579c-4.358,1.063-8.784,1.85-13.178,2.764c-1.82-2.038-3.643-4.077-5.465-6.116   c20.244-1.072,38.431-8.968,56.371-17.385c24.347-11.423,48.439-11.197,72.741,0.055c11.005,5.095,21.898,10.541,33.603,13.968   c20.832,6.099,41.173,3.976,61.038-4.073c11.092-4.494,21.909-9.682,33.076-13.968c18.782-7.209,37.503-6.216,55.847,1.851   c5.631,2.477,11.146,5.228,16.635,8.01c14.459,7.332,29.625,11.813,45.968,11.718C485.725,465.793,483.943,467.901,482.161,470.011   z"/>
	<path fill-rule="evenodd" clip-rule="evenodd" fill="#FEFEFE" d="M468.718,482.705c-13.851-3.884-26.362-10.875-39.329-16.832   c-23.483-10.789-46.998-10.181-70.519,0.173c-12.16,5.353-24.049,11.381-36.903,15.069c-21.021,6.033-41.117,3.199-60.656-5.936   c-11.743-5.49-23.421-11.209-36.069-14.411c-19.275-4.88-37.953-2.684-56.08,5.142c-12.963,5.597-25.749,11.626-39.307,15.729   c-1.823-1.749-3.65-3.498-5.478-5.249c17.458-3.493,33.276-11.445,49.479-18.316c20.579-8.728,41.12-8.573,61.657-0.147   c8.31,3.408,16.51,7.098,24.671,10.851c26.263,12.08,52.517,11.569,78.829,0.211c10.078-4.351,20.058-8.967,30.304-12.883   c18.463-7.055,36.856-6.04,54.966,1.635c1.531,0.649,3.075,1.285,4.552,2.046c14.663,7.55,29.479,14.689,45.938,17.529   C472.916,479.291,471.161,481.385,468.718,482.705z"/>
	<path fill-rule="evenodd" clip-rule="evenodd" fill="#FEFEFE" d="M457.225,492.847c-7.865-2.798-15.224-6.709-22.616-10.506   c-25.6-13.146-51.365-13.345-77.456-1.521c-9.088,4.119-18.121,8.359-27.491,11.864c-22.567,8.442-44.647,7.368-66.485-2.584   c-11.197-5.104-22.227-10.646-34.079-14.172c-19.411-5.776-38.49-4.673-57.179,3.026c-10.153,4.184-20.235,8.54-30.349,12.818   c-1.898-1.142-3.649-2.461-5.014-4.236c12.423-4.293,24.334-9.83,36.376-15.039c21.715-9.394,43.315-8.847,64.866,0.413   c8.245,3.542,16.424,7.239,24.635,10.86c24.125,10.639,48.409,10.541,72.71,0.775c9.865-3.965,19.517-8.46,29.302-12.631   c21.657-9.229,43.04-8.385,64.168,1.821c10.467,5.057,20.655,10.743,31.835,14.214c0.575,0.179,1.005,0.828,1.505,1.258   C460.377,490.42,458.801,491.633,457.225,492.847z"/>
	<path fill-rule="evenodd" clip-rule="evenodd" fill="#99877D" d="M166.658,509.9c24.206-11.713,48.626-11.763,73.322-1.535   c11.824,4.896,23.108,11.099,35.362,14.935c23.62,7.394,45.937,2.715,67.707-7.417c11.591-5.395,23.127-11.024,35.817-13.564   c18.819-3.768,36.648-0.969,53.547,8.037c-2.421,1.543-4.842,3.086-7.26,4.622c-16.748-8.35-34.078-9.204-51.84-3.903   c-13.111,3.912-25.065,10.641-37.728,15.666c-24.723,9.813-49.176,9.885-73.669-0.82c-13.072-5.713-25.676-12.669-39.762-15.832   c-16.352-3.672-32.299-2.874-47.586,4.602C171.934,513.094,169.296,511.497,166.658,509.9z"/>
	<path fill-rule="evenodd" clip-rule="evenodd" fill="#FEFEFE" d="M148.496,497.475c11.302-5.241,22.558-10.583,34.463-14.387   c17.787-5.683,35.176-3.887,52.22,2.922c7.409,2.96,14.759,6.124,21.928,9.62c28.239,13.773,56.441,13.206,84.789,0.38   c9.086-4.111,18.085-8.428,27.484-11.838c16.967-6.156,33.872-6.165,50.764,0.175c10.289,3.862,19.903,9.157,29.67,14.124   c-1.44,1.054-2.881,2.108-4.322,3.163c-11.58-5.867-23.096-11.894-36.063-14.255c-18.52-3.372-36.017-0.01-52.985,7.649   c-11.813,5.332-23.455,11.119-36.1,14.438c-17.146,4.501-33.974,3.775-50.411-2.904c-8.473-3.443-16.831-7.184-25.153-10.983   c-25.984-11.864-52.006-12.81-78.17-0.613c-4.372,2.039-8.842,3.868-13.267,5.794C151.728,499.665,150.111,498.569,148.496,497.475   z"/>
	<path fill-rule="evenodd" clip-rule="evenodd" fill="#00A850" d="M439.231,108.605c0,31.983,0.212,63.425-0.107,94.861   c-0.123,12.107-6.479,21.786-14.505,30.405c-5.714,6.136-12.342,11.124-19.299,15.759c-27.007,17.989-54.667,34.98-81.182,53.734   c-11.514,8.144-16.831,19.101-17.588,32.514c-1.872,33.127-0.391,66.297-0.821,99.445c-0.011,0.833-0.001,1.666-0.001,2.5   c-0.001,7.274-3.191,9.604-10.165,7.568c-1.234-0.36-1.602-1.037-1.638-2.098c-0.053-1.498-0.041-2.999-0.041-4.499   c-0.001-57.653,0.36-115.312-0.172-172.961c-0.226-24.517,9.236-43.445,28.242-58.171c16.49-12.775,34.784-22.783,52.277-34.021   c9.38-6.025,18.747-12.069,28.06-18.197c16.929-11.139,29.201-26.005,35.94-45.254   C438.375,109.784,438.699,109.438,439.231,108.605z"/>
	<path fill-rule="evenodd" clip-rule="evenodd" fill="#00A850" d="M157.799,110.459c6.383,18.992,18.812,33.105,33.678,45.568   c21.832,18.303,44.126,36.013,66.637,53.462c10.644,8.251,20.247,17.389,23.806,31.123c1.851,7.144,2.545,14.418,2.548,21.76   c0.022,59.485-0.025,118.97,0.105,178.454c0.008,3.787-0.989,4.785-4.704,4.653c-7.291-0.257-7.3-0.034-7.3-7.497   c0-27.326-0.038-54.652,0.023-81.978c0.019-8.373-0.84-16.593-2.975-24.705c-3.624-13.772-10.64-25.311-21.65-34.481   c-19.207-16-39.331-30.79-59.508-45.516c-20.933-15.278-31.925-35.402-31.445-61.758c0.446-24.485,0.083-48.985,0.122-73.479   C157.139,114.318,156.64,112.476,157.799,110.459z"/>
	<path fill-rule="evenodd" clip-rule="evenodd" fill="#00A850" d="M439.7,227.82c-1.39,26.925,1.931,52.869-2.156,78.617   c-2.083,13.128-9.133,23.494-20.068,30.955c-16.35,11.155-32.908,22.005-49.341,33.039c-8.019,5.384-15.857,11.023-23.022,17.527   c-11.775,10.689-18.988,23.409-17.882,39.926c0.3,4.477-0.094,8.996,0.095,13.484c0.12,2.876-0.503,4.199-3.799,4.088   c-10.258-0.349-8.275,1.145-8.285-7.974c-0.029-29.977-0.082-59.956,0.29-89.929c0.215-17.29,6.764-31.108,21.828-41.277   c24.547-16.57,49.484-32.529,74.163-48.887C427.506,246.796,429.76,244.485,439.7,227.82z"/>
</g>
<g id="Layer_2">
	<path fill-rule="evenodd" clip-rule="evenodd" fill="#EC1B2E" d="M300,598c-79.599,0-154.433-30.997-210.718-87.282   C32.998,454.433,2,379.599,2,300S32.998,145.567,89.282,89.282C145.567,32.998,220.401,2,300,2s154.433,30.998,210.718,87.282   C567.003,145.567,598,220.401,598,300s-30.997,154.433-87.282,210.718S379.599,598,300,598z M300,50C161.93,50,50,161.93,50,300   s111.93,250,250,250s250-111.93,250-250S438.07,50,300,50z"/>
</g>
</svg>
