<svg xmlns="http://www.w3.org/2000/svg" xmlns:svg="http://www.w3.org/2000/svg" viewBox="0 0 120 120">
 <title>KTC logo</title>
 <style type="text/css">.st0{fill:#FFFFFF;}
  .st1{opacity:0.5;fill:#EC8467;enable-background:new    ;}
  .st2{opacity:0.5;fill:#E45038;enable-background:new    ;}
  .st3{fill:#DC0714;}</style>

 <g>
  <title>Layer 1</title>
  <g id="Layer_2">
   <path id="svg_1" d="m101.147324,57.968513l-61.196327,34.010605c-3.526176,1.933708 -8.189837,0.341232 -9.782309,-3.526192l-18.99589,-43.792908c-1.137478,-2.502449 0.341248,-5.346146 2.95745,-5.80114l48.570313,-8.758581c4.322418,-0.796232 8.87233,0.341246 12.512253,3.071192l26.275757,19.792118c1.592461,1.364975 1.478706,3.981178 -0.341248,5.004906z" class="st1"/>
   <path id="svg_2" d="m94.89119,57.286026l-54.371452,43.224174c-3.184944,2.502449 -7.848602,1.706215 -10.123558,-1.819969l-25.593257,-39.69799c-1.47872,-2.274956 -0.454993,-5.232391 1.933718,-6.14238l45.95411,-16.379684c4.208672,-1.478722 8.758583,-1.137478 12.739761,0.909981l28.891945,15.128456c1.933708,0.909988 2.274956,3.526192 0.568733,4.777412z" class="st1"/>
   <path id="svg_3" d="m107.175957,58.423508l-65.404999,28.095711c-3.867424,1.592468 -8.303581,-0.454994 -9.554817,-4.549911l-14.673458,-46.181614c-0.79624,-2.616203 0.909977,-5.346149 3.52618,-5.573645l49.935287,-3.867428c4.549911,-0.341242 8.986069,1.251228 12.284767,4.32242l24.569534,22.749561c1.7062,1.478722 1.251213,4.094917 -0.682495,5.004906z" class="st2"/>
   <path id="svg_4" d="m113.432091,61.267197l-68.362442,19.450882c-3.981171,1.137482 -8.189838,-1.478722 -8.87233,-5.687386l-8.644835,-47.660341c-0.454992,-2.729948 1.592472,-5.11865 4.208675,-5.004904l50.049036,2.616199c4.549911,0.227495 8.758575,2.388704 11.716026,5.914886l21.384575,25.479511c1.36499,1.706215 0.568741,4.208672 -1.478706,4.891151z" class="st3"/>
   <path id="svg_5" d="m48.709579,49.20993l8.531082,-8.531082c0,0 -2.616196,-1.819969 -4.208664,-0.227497l-6.369881,6.369877l-1.592468,1.592468l0,-7.052364c0,-0.909981 -0.682487,-1.592464 -1.592468,-1.592464c-0.909981,0 -1.592476,0.682484 -1.592476,1.592464l0,18.427151l3.071198,0l0,-10.009811l1.478714,1.592468l7.507362,8.303596l4.208672,0l-9.441071,-10.464806z" class="st0"/>
   <path id="svg_6" d="m74.530342,39.882614l-14.787224,0c-0.909988,0 -1.592468,0.682484 -1.592468,1.592468s0.68248,1.592468 1.592468,1.592468l5.801132,0l0,16.720932l3.07119,0l0,-16.834679l5.801147,0c0.909981,0 1.592461,-0.682487 1.592461,-1.592472c0.113754,-0.796234 -0.568741,-1.478718 -1.478706,-1.478718z" class="st0"/>
   <path id="svg_7" d="m85.905106,59.788483c-1.592484,0 -3.184944,-0.341248 -4.549911,-1.137482c-3.07119,-1.706215 -5.004898,-4.891151 -5.118652,-8.758583c-0.227493,-4.549911 2.161201,-8.417336 6.142372,-10.009804c3.184944,-1.364975 6.824867,-0.909985 9.441071,1.023727c0.796234,0.568741 0.796234,1.706223 0.113754,2.274956l-0.113754,0.113747c-0.454979,0.454994 -1.364967,0.568741 -1.819969,0.113747c-1.819954,-1.364967 -4.208664,-1.592464 -6.48362,-0.68248c-2.843697,1.137474 -4.436157,3.75367 -4.208672,7.052361c0.113762,2.729942 1.478729,5.004906 3.526192,6.14238c1.933708,1.023735 4.322403,1.023735 6.824867,-0.113747c0.68248,-0.34124 1.478714,0 1.933708,0.568741l0.113739,0.113747c0.455002,0.796234 0.113754,1.706215 -0.682472,2.047462c-1.819954,0.909981 -3.526176,1.251228 -5.118652,1.251228z" class="st0"/>
  </g>
 </g>
</svg>
