<svg width="24" height="24" viewBox="0 0 24 24" fill="none" xmlns="http://www.w3.org/2000/svg">
<path d="M12.0675 23.5518C18.5354 23.5518 23.7787 18.3085 23.7787 11.8406C23.7787 5.37265 18.5354 0.129364 12.0675 0.129364C5.59961 0.129364 0.356323 5.37265 0.356323 11.8406C0.356323 18.3085 5.59961 23.5518 12.0675 23.5518Z" fill="#FFCF00"/>
<path fill-rule="evenodd" clip-rule="evenodd" d="M11.9951 0C5.37049 0 0 5.37218 0 12.0008C0 18.6214 5.37049 24 11.9951 24C18.6191 24 23.9934 18.6214 23.9934 12.0008C23.9934 5.37218 18.6191 0 11.9951 0ZM11.9951 23.04C5.90047 23.04 0.957976 18.0911 0.957976 12.0008C0.957976 5.9065 5.90047 0.96032 11.9951 0.96032C18.0935 0.96032 23.0316 5.9065 23.0316 12.0008C23.0316 18.0911 18.0935 23.04 11.9951 23.04Z" fill="black"/>
<path fill-rule="evenodd" clip-rule="evenodd" d="M7.2113 11.4458C6.35291 11.2329 5.60005 12.2344 5.17596 12.9942C5.32204 11.9554 6.59551 10.2602 7.2113 11.4458Z" fill="black"/>
<path fill-rule="evenodd" clip-rule="evenodd" d="M5.31799 11.4625C5.60808 10.4771 6.29244 10.1186 6.65166 10.4023C6.16546 10.5567 5.79588 10.8531 5.31799 11.4625Z" fill="black"/>
<path fill-rule="evenodd" clip-rule="evenodd" d="M7.51575 13.0444C7.95616 12.6691 7.91244 12.1221 7.22808 11.9426C6.71612 11.809 5.62477 12.7233 5.5105 13.7334C5.94226 13.1737 7.21132 12.1469 7.51575 13.0444Z" fill="black"/>
<path fill-rule="evenodd" clip-rule="evenodd" d="M14.3971 15.6702C14.4829 14.3717 13.2222 13.7582 12.9735 12.4353C12.7376 11.1033 14.9437 8.97904 13.5496 6.79968C16.1797 8.92024 14.1197 10.1767 15.4486 11.9427C14.9354 11.7963 14.4218 11.3245 14.2737 11.091C13.5286 12.0636 16.0898 13.4036 14.3971 15.6702Z" fill="black"/>
<path fill-rule="evenodd" clip-rule="evenodd" d="M10.1686 5.20914L10.7989 5.66858C10.0661 6.34492 9.07895 6.07393 8.29639 6.75829C8.61815 5.90649 10.0497 5.7815 10.1686 5.20914Z" fill="black"/>
<path fill-rule="evenodd" clip-rule="evenodd" d="M12.5331 6.16549C12.8359 5.83169 12.5583 5.35145 11.3061 5.19275C12.6103 5.83964 10.5105 5.96896 10.4333 7.06271C9.7553 7.33434 9.20466 6.88789 8.8621 7.19637L8.26298 6.938C7.86635 7.1422 7.94187 7.6849 8.33178 7.84793L8.41706 8.01871C7.99368 8.41135 7.79785 8.76183 8.24226 9.15383C8.48218 8.70775 8.60146 8.55703 8.87482 8.33175C9.12674 8.50687 9.57186 8.38591 10.1687 7.735L10.2204 7.75168C9.74266 9.38807 8.53234 9.65071 8.14434 9.57183C8.38194 9.92639 9.92242 10.1433 10.1099 9.45023C10.555 7.89336 12.051 7.22574 10.7591 7.25045C11.1057 6.84183 12.2851 6.44919 12.5331 6.16549ZM9.27146 8.06487L9.06234 7.75971C9.18154 8.08151 9.50274 7.92679 9.31922 7.47204L9.93906 7.46778L9.27146 8.06487Z" fill="black"/>
<path fill-rule="evenodd" clip-rule="evenodd" d="M13.1828 5.33076C13.8066 5.73143 14.103 6.00711 14.5117 6.48663C14.5932 5.82768 14.2136 4.50409 13.6579 4.19904L13.1828 5.33076Z" fill="black"/>
<path fill-rule="evenodd" clip-rule="evenodd" d="M3.19348 10.6488C3.59585 9.59254 4.58357 8.3235 6.17815 7.37174C6.5414 6.42441 6.41975 5.77752 10.2809 4.29118C10.3791 3.71911 10.3628 3.03474 10.5191 3.03474C10.6863 3.03474 11.26 3.28104 11.6607 3.87384L12.0887 3.82401C12.1572 3.48517 12.3831 2.56729 12.6875 2.11183C12.9655 1.67006 13.5035 1.63195 14.1925 2.20006C14.9147 2.78413 15.4176 3.03474 16.407 4.29118C17.2354 4.66708 18.5379 5.14262 19.6627 6.51198C19.1761 6.20288 18.6191 6.0779 18.1667 6.03183C19.0866 6.8211 19.692 8.15638 19.2269 10.1018C19.0515 8.28198 17.7135 7.52214 16.8975 6.94204C17.342 8.48214 15.4176 7.94786 14.8375 6.79966L15.3467 6.77091C15.2815 4.43321 14.1842 3.0889 13.6913 2.68022C13.0634 2.15392 12.7249 3.41071 12.5124 4.35805L11.8321 4.87966L12.0112 4.37068C11.0368 4.44961 9.94315 5.02161 9.27147 5.32603C7.56589 6.10266 7.1342 6.47856 6.75824 7.78113C5.40797 8.34854 3.84875 9.90566 3.19348 10.6488Z" fill="black"/>
<path fill-rule="evenodd" clip-rule="evenodd" d="M11.7171 10.3311C11.8966 10.5399 13.026 12.2344 11.7212 14.4098C12.0804 12.8108 11.0893 9.77201 9.99562 11.3245C10.734 11.6463 10.9787 12.2511 10.7802 12.8359C10.4771 12.2765 9.70314 11.659 8.9393 11.9173C8.55306 12.0429 8.0501 12.047 7.67224 11.4915C7.182 10.7695 8.00634 9.87625 6.59558 9.94713C8.30674 9.07897 7.80985 10.7608 8.63018 10.9572C9.58458 11.1908 9.69514 10.5987 10.0243 10.2268C10.2936 9.89697 10.7802 9.66337 11.2895 10.0019C11.5377 9.25481 11.1828 8.08153 11.8759 7.45133C12.1368 7.22173 12.9529 7.25487 13.3743 7.58499C12.7774 7.57633 12.0677 8.29873 11.7171 10.3311Z" fill="black"/>
<path fill-rule="evenodd" clip-rule="evenodd" d="M20.4245 7.35104C21.291 10.3769 21.0488 13.2907 20.1553 15.0273C20.2617 13.9376 19.3081 12.3474 19.6921 10.4938C17.8806 12.2511 20.7149 16.5718 16.5988 19.4017C17.2146 18.4122 17.492 15.9499 17.2775 15.0607L17.8553 15.6494C18.1977 14.5221 18.2392 12.9107 17.5946 11.2998L18.4918 11.7378C18.5944 9.23336 16.7655 9.04992 16.4237 8.3652C16.4237 9.09576 17.2775 9.7052 17.4315 10.6696C16.8324 10.3769 16.3966 10.3481 16.0899 10.3769C16.551 10.7154 17.5819 12.7106 17.2775 14.3048C16.8324 13.9336 16.4237 13.7582 15.9746 13.7294C16.5263 14.5558 16.7471 16.7305 16.0645 17.7112L15.71 16.5718C15.3841 17.7908 14.4345 18.2957 13.7852 18.4417C14.5975 17.607 14.4345 16.1082 13.2556 15.7076C12.1953 15.3404 10.8403 16.0668 10.3023 18.5921C9.52806 18.8176 7.2281 18.3287 8.60142 16.8434C9.44214 17.1311 11.5754 15.699 11.4311 14.6935C11.2289 13.3034 9.95982 12.8149 8.95198 12.8276C7.70791 12.8399 6.86087 13.9964 5.84433 14.5097C4.99225 14.3803 4.70216 14.2634 4.27048 13.124C4.21633 12.4309 4.95484 11.9507 4.94214 11.237C4.33493 11.3666 4.18893 10.4437 3.01007 11.4L3.07451 10.8196C2.63815 11.2122 2.55695 11.6798 2.54822 11.776C2.75739 12.189 3.05783 12.5642 3.63793 12.9569C4.33095 14.8058 5.0447 15.0146 5.77917 15.0901C5.90885 15.2649 6.45147 15.9122 7.14222 16.0207L7.0794 14.4386C8.5887 12.9274 9.70318 13.8501 9.85318 14.2467C8.51558 14.5221 9.46126 17.3858 7.24243 16.1082C7.14853 16.4046 7.27587 17.1352 7.55325 17.5612C7.78108 19.5227 10.2458 19.0425 11.0121 19.3894C10.9302 17.4817 11.9865 16.0875 12.8924 16.2085C13.7979 16.3127 14.0338 17.8114 12.4809 19.2015C12.8669 19.4017 14.5284 19.122 15.3714 18.5085C15.4533 18.9927 14.8291 20.4286 14.0505 21.434C20.5599 19.9447 23.4761 12.8734 20.4245 7.35104ZM3.98039 12.6938L3.13903 11.7963L3.78429 11.3499L4.14351 11.4999L3.83439 11.7629L4.10773 12.2511L3.98039 12.6938ZM6.14243 14.8562L6.68506 14.4512C6.62692 14.9438 6.80607 15.6034 6.80607 15.6034L6.14243 14.8562ZM9.53206 15.3277L10.0036 15.3651L9.87862 14.6514L10.5924 14.8976C10.5192 15.4614 10.1686 15.6368 9.31926 16.0454L9.53206 15.3277ZM7.81856 17.198L7.5365 16.5217L8.2111 16.7926L7.81856 17.198Z" fill="black"/>
</svg>
