<svg xmlns="http://www.w3.org/2000/svg" width="114" height="114" fill="none"><g clip-path="url(#a)"><path fill="#e30613" d="M89 0H25A25 25 0 0 0 0 25v64a25 25 0 0 0 25 25h64a25 25 0 0 0 25-25V25A25 25 0 0 0 89 0z"/><g fill-rule="evenodd" clip-path="url(#b)"><path fill="url(#c)" d="M97.7 1.5A25 25 0 0 0 89 0H49.3c.3 4 .8 7.8 1.6 11.6 2.3 11 6.7 21 13 30.3s14.3 17 23.6 23c8 5.3 17 9.2 26.5 11.4V25h-.5c-4-2.6-7.5-6-10.2-10s-4.6-8.4-5.6-13v-.2z"/><path fill="url(#d)" d="m113.5 93.8-2-8.8a112 112 0 0 0-19.4-39.3 112 112 0 0 0-74.4-43l-3.5-.4A25 25 0 0 0 0 25v40.6c3.2-.2 6.3-.1 9.5.3 6.3.8 12.4 3 18 6s10.4 7.4 14.2 12.5 6.7 10.8 8.4 17c1 4 1.6 8.3 1.7 12.5H89a25 25 0 0 0 24.5-20.2z"/></g><path fill="#fff" d="M95.6 50.5C94.6 70 79 85.8 59.4 87 46 87.8 34 82 25.8 71.5c-.1-.2-.1-.3.1-.3h21.5c3 0 6.4-.4 9.8-1.2 6.7-1.5 12-3.7 16.3-8.8 7.6-9.2 5.5-22.7-4-29.6-5.3-3.8-11.4-4.8-18.5-3h-.3c-.1 0-.2-.1-.2-.1l-12-14c-.1-.1-.1-.2.1-.3 13.5-7.3 30-5.7 42 3.4 10.2 7.8 15.7 20 15 32.8zm-69-26.2c2-2.7 4.6-5 7.4-7 .1-.1.3-.1.4 0l13 13c.1.1.1.3 0 .4-2 1-3.8 2.6-5.3 4.3-.1.2-.3.2-.5.1l-15-10c-.3-.2-.3-.4-.1-.6zm-6.8 13c.8-3 2.4-6.3 4-9 .1-.2.2-.2.4-.1l15.3 9c.2.1.2.3.1.5-1.2 2-2 4.2-2.5 6.5 0 .2-.1.2-.3.2L20 37.8c-.2-.1-.3-.2-.2-.4zm26-.2c1.6-1.3 3.6-2.4 5.5-3h.2l.2.1 7.8 7.6c.1.1.1.1.1.2v4.4c0 .2-.1.3-.3.2l-13.6-9c-.2-.1-.2-.2 0-.4zm-5 8.8s-.1 0-.1-.1v-.1c.5-2.2 1.4-4.3 2.6-6 0-.1.1-.1.2-.1h.2l16 9c.1 0 .1.1.1.2v4.3L40.7 46zm.4 13c-.6-3.2-1.2-6.3-1-9.7 0-.2.1-.3.3-.2l19 6c.1 0 .1.1.2.1s.1.1.1.2v4.8c0 .2-.1.3-.2.3h-39c-.1 0-.2 0-.2-.1s-.1-.1-.1-.2c-1.8-5.7-2.3-11.8-1.4-17.7v-.1c0-.1 0 0 .1-.1s0 0 .1 0h.1L36.6 48c.1 0 .1.1.2.1s.1.1.1.2a19 19 0 0 0 4 11l.1.1h.1s.1 0 .1-.1v-.1zm-20 3.7h15.7l2 2H55.1l.1.1c.1.1 0 .1 0 .1v.1L52 68.7H23.9l-.1-.1L21 63v-.2l.1-.1c.1-.1 0 0 .1 0zm34.3 39.5c0 .6-.1 1-.4 1.6s-.7.8-1.3 1-1.2.4-2 .4c-.4 0-.7 0-1-.1-.3 0-.6-.1-1-.2l-1-.3v-2l1.5.6c.5.2 1 .3 1.5.3.4 0 .6 0 .8-.1s.4-.2.5-.4.1-.3.1-.6c0-.2-.1-.5-.3-.7s-.4-.3-.7-.5l-1-.5-.8-.4c-.3-.2-.5-.4-.8-.6-.3-.2-.5-.5-.6-.8-.2-.3-.2-.7-.2-1.2 0-.6.1-1 .4-1.6s.7-.8 1.2-1 1-.3 1.8-.3c.5 0 1 .1 1.5.2l1.5.5-.7 1.7-1.3-.4c-.4-.1-.7-.2-1-.2-.2 0-.5 0-.7.1-.2.1-.3.2-.4.4s-.2.3-.1.5c0 .2.1.4.2.6s.4.3.6.5l1 .5c.5.2 1 .5 1.3.8s.7.6 1 1 .3.8.3 1.3zm5.7-3h4v5.3c-.5.2-1 .3-1.7.4-.6.1-1.3.2-2 .2-1 0-2-.2-2.6-.6s-1.2-1-1.6-1.8-.5-1.7-.5-3c0-1 .2-2 .6-2.8s1-1.4 1.8-1.8 1.8-.6 3-.6c.5 0 1 .1 1.6.2s1 .3 1.4.5l-.7 1.7c-.3-.2-.7-.3-1-.4-.4-.1-.8-.2-1.3-.2-.6 0-1.2.1-1.6.4s-.8.7-1 1.2-.4 1-.4 1.8c0 .7.1 1.3.3 1.8s.5 1 1 1.2 1 .4 1.5.4h.8l.6-.1v-2h-2v-1.8z"/></g><defs><clipPath id="a"><path fill="#fff" d="M0 0h114v114H0z"/></clipPath><clipPath id="b"><path fill="#fff" d="M0 0h114v114H0z"/></clipPath><radialGradient id="d" cx="0" cy="0" r="1" gradientTransform="rotate(13.48 -437.992 205.646) scale(110.196 111.708)" gradientUnits="userSpaceOnUse"><stop offset=".1" stop-color="#ff4854"/><stop offset=".5" stop-color="#e30613"/></radialGradient><linearGradient id="c" x1="163.8" x2="94.7" y1="166.5" y2="-60" gradientUnits="userSpaceOnUse"><stop offset=".7" stop-color="#d10000"/><stop offset=".8" stop-color="#e30613"/></linearGradient></defs></svg>