<svg width="61" height="61" viewBox="0 0 61 61" fill="none" xmlns="http://www.w3.org/2000/svg">
<path d="M22.8719 37.0458C22.4426 37.2629 21.946 37.3056 21.486 37.1649C21.0259 37.0242 20.6381 36.7111 20.4037 36.291L20.2806 36.0238L15.1835 24.8392C15.1267 24.7156 15.0964 24.5815 15.0945 24.4454C15.096 24.2729 15.1451 24.1041 15.2364 23.9577C15.3277 23.8113 15.4577 23.6929 15.6119 23.6156C15.7662 23.5383 15.9388 23.505 16.1107 23.5195C16.2827 23.534 16.4473 23.5956 16.5864 23.6977L22.6012 27.9802C23.054 28.2769 23.5835 28.4353 24.1248 28.4361C24.4515 28.4349 24.7755 28.377 25.0824 28.265L53.3677 15.6752C48.2976 9.69792 39.9482 5.79395 30.4982 5.79395C15.0347 5.79395 2.5 16.2401 2.5 29.1264C2.5 36.1585 6.27154 42.4874 12.1738 46.7618C12.4166 46.9347 12.6144 47.1633 12.7508 47.4284C12.8872 47.6934 12.9582 47.9873 12.9579 48.2854C12.9522 48.4874 12.9191 48.6877 12.8594 48.8808L11.5983 53.5864C11.5397 53.8079 11.4472 54.0376 11.4472 54.2685C11.4472 54.5172 11.5459 54.7557 11.7218 54.9315C11.8976 55.1073 12.1361 55.2061 12.3848 55.2061C12.577 55.1982 12.7635 55.1378 12.9239 55.0315L19.0524 51.4932C19.5007 51.2191 20.0142 51.0702 20.5396 51.0619C20.8177 51.0625 21.0942 51.1044 21.36 51.1861C24.3326 52.0375 27.4097 52.4683 30.5018 52.466C45.9641 52.466 58.5 42.0186 58.5 29.1335C58.5 25.2307 57.3432 21.554 55.3109 18.3205L23.0759 36.9274L22.8719 37.0458Z" fill="#39B54A"/>
</svg>
